<svg width="31px" height="27px" viewBox="0 0 31 27" version="1.1" xmlns="http://www.w3.org/2000/svg" xmlns:xlink="http://www.w3.org/1999/xlink">
    <defs></defs>
    <path d="M27.751799,7.46027813 C27.751799,16.2952029 21.3763322,26.4797048 9.71669468,26.4797048 C6.13779797,26.4797048 2.80647297,25.3766449 0,23.4755379 C0.497124004,23.5361226 1.00018973,23.5674595 1.51315832,23.5674595 C4.48203833,23.5674595 7.21523007,22.4999148 9.38593887,20.7074425 C6.61115509,20.6531251 4.27011695,18.7206812 3.46600402,16.0653988 C3.85023532,16.1426965 4.24833064,16.1865682 4.65632882,16.1865682 C5.23465635,16.1865682 5.79317814,16.1030031 6.3239719,15.9525858 C3.42639254,15.3425603 1.24181972,12.6392279 1.24181972,9.39898953 L1.24181972,9.31542433 C2.09742757,9.81472613 3.07385042,10.1134714 4.11365162,10.1468975 C2.41233879,8.94982683 1.29331464,6.90248083 1.29331464,4.58563723 C1.29331464,3.35931876 1.60624529,2.21029804 2.15090306,1.22631847 C5.27822897,5.26878233 9.94644124,7.92824293 15.2147673,8.20818623 C15.1058358,7.71933013 15.0523603,7.20749363 15.0523603,6.68521143 C15.0523603,2.99163213 17.8885419,0 21.3882156,0 C23.2143046,0 24.8581808,0.81476014 26.0148359,2.11001987 C27.4586741,1.81336361 28.8153671,1.25556627 30.0354005,0.49094521 C29.5660045,2.05152427 28.5598731,3.36140789 27.2526944,4.19079193 C28.5321451,4.02783991 29.754159,3.66850979 30.8929889,3.135782 C30.0413422,4.47491342 28.9658907,5.65109283 27.7280321,6.59328983 C27.7399156,6.88367863 27.751799,7.16780013 27.751799,7.46027813 L27.751799,7.46027813 Z" id="Fill-1" stroke="none" fill-rule="evenodd"></path>
</svg>
